PathFileType	4	(X/Y/Z)	..\data\2014025\dynamic\2014025_C4_04.trc
DataRate	CameraRate	NumFrames	NumMarkers	Units	OrigDataRate	OrigDataStartFrame	OrigNumFrames
100.000000	100.000000	4	52	mm	100.000000	95	152
Frame#	Time	L_IAS			L_IPS			R_IPS			R_IAS			L_FTC			L_FLE			L_FME			L_FAX			L_TTC			L_FAL			L_TAM			L_FCC			L_FM1			L_FM2			L_FM5			R_FTC			R_FLE			R_FME			R_FAX			R_TTC			R_FAL			R_TAM			R_FCC			R_FM1			R_FM2			R_FM5			CV7			TV10			SXS			SJN			L_SIA			L_SRS			L_SAA			L_SAE			L_HLE			L_HME			L_UOA			L_RSP			L_UHE			L_HM2			L_HM5			R_SIA			R_SRS			R_SAA			R_SAE			R_HLE			R_HME			R_UOA			R_RSP			R_UHE			R_HM2			R_HM5			
		X1	Y1	Z1	X2	Y2	Z2	X3	Y3	Z3	X4	Y4	Z4	X5	Y5	Z5	X6	Y6	Z6	X7	Y7	Z7	X8	Y8	Z8	X9	Y9	Z9	X10	Y10	Z10	X11	Y11	Z11	X12	Y12	Z12	X13	Y13	Z13	X14	Y14	Z14	X15	Y15	Z15	X16	Y16	Z16	X17	Y17	Z17	X18	Y18	Z18	X19	Y19	Z19	X20	Y20	Z20	X21	Y21	Z21	X22	Y22	Z22	X23	Y23	Z23	X24	Y24	Z24	X25	Y25	Z25	X26	Y26	Z26	X27	Y27	Z27	X28	Y28	Z28	X29	Y29	Z29	X30	Y30	Z30	X31	Y31	Z31	X32	Y32	Z32	X33	Y33	Z33	X34	Y34	Z34	X35	Y35	Z35	X36	Y36	Z36	X37	Y37	Z37	X38	Y38	Z38	X39	Y39	Z39	X40	Y40	Z40	X41	Y41	Z41	X42	Y42	Z42	X43	Y43	Z43	X44	Y44	Z44	X45	Y45	Z45	X46	Y46	Z46	X47	Y47	Z47	X48	Y48	Z48	X49	Y49	Z49	X50	Y50	Z50	X51	Y51	Z51	X52	Y52	Z52	

96	0.9500000000000001	1113.723266601563	869.3221435546877	-424.7418823242189	890.6255493164065	945.2195434570315	-333.1741638183594	895.8472900390627	930.2692871093752	-217.8406066894532	1123.410522460938	884.0632324218752	-152.066879272461	1004.289367675781	827.1958007812502	-500.094940185547	931.430358886719	457.9092712402345	-422.251190185547	915.7234497070315	449.4712219238282	-262.8888549804688	890.2076416015627	413.5905761718751	-422.0767822265626	936.6689453125002	365.2862854003907	-364.7766723632813	769.4087524414065	79.8675003051758	-370.9270935058594	780.2926025390627	92.71004486083986	-282.1871032714844	715.2765502929689	44.76495361328126	-322.2287292480469	900.5118408203127	18.54607772827149	-273.1738281250001	910.273132324219	38.02973556518555	-332.0215454101563	866.6804809570315	22.6557788848877	-382.9743652343751	1041.559448242188	806.5078125000002	-67.10598754882814	1188.580810546875	466.0419006347657	-115.2893753051758	1210.10546875	465.8670349121095	-282.8311157226563	1183.702758789063	393.5738525390626	-116.2551040649414	1273.725952148438	413.6023559570314	-167.2242736816407	1314.810424804688	83.02374267578126	-151.48095703125	1348.203247070313	104.9876708984375	-234.0402832031251	1308.679443359375	24.44596099853516	-219.0698852539063	1483.250610351563	84.92764282226564	-203.6182861328126	1460.664306640625	103.1480331420899	-156.5158386230469	1427.62060546875	66.52789306640626	-113.9734039306641	977.0286865234377	1390.467651367188	-295.6606750488282	903.158142089844	1168.820068359375	-300.1448669433594	1154.5263671875	1165.007446289063	-289.2509765625001	1093.592407226563	1311.3251953125	-287.6739807128907	905.7234497070315	1215.64306640625	-407.9434814453126	946.2076416015627	1345.833984375	-389.3147888183595	1000.361572265625	1353.46337890625	-461.8515930175782	1052.45263671875	1359.114501953125	-476.1139526367189	1112.115966796875	1056.446655273438	-573.0680541992189	1082.061279296875	1019.239685058594	-492.4429321289064	1090.388427734375	1019.749267578125	-539.8639526367189	1302.9794921875	901.5445556640627	-529.6590576171876	1259.562255859375	864.8150024414065	-586.1420288085939	1366.651977539063	852.6800537109377	-541.9774169921876	1298.811767578125	810.3090820312502	-593.4119262695314	889.3752441406252	1198.756225585938	-201.3844757080079	935.3492431640627	1331.498291015625	-207.9677124023438	977.9829101562502	1338.556640625	-139.857650756836	1026.089599609375	1339.485595703125	-117.5332183837891	931.5413818359377	1038.448852539063	-35.48661041259766	940.231872558594	1012.301635742188	-120.3015975952149	922.1646728515627	1012.302795410156	-71.76232910156251	983.1180419921877	794.6397705078127	10.68281555175781	922.916442871094	807.8522949218752	36.84082031250001	967.6953735351565	717.6888427734376	30.73746871948243	882.3005371093752	765.7817382812501	33.82138442993165	
97	0.96	1127.80224609375	867.0010375976565	-424.6195373535157	905.4392089843752	943.7813720703127	-330.1927185058594	911.067565917969	927.7686157226565	-215.3137969970704	1139.024169921875	882.7095947265627	-150.9682769775391	1017.194030761719	825.9436035156252	-498.8708496093751	941.3950195312502	457.0528259277345	-422.1333312988282	926.796325683594	448.1985473632814	-262.6669311523438	899.2745361328127	413.4310607910157	-421.8420715332032	945.0324707031252	363.8447265625001	-364.8721618652344	770.7500000000002	82.36118316650392	-371.6349792480469	781.5485839843752	94.77365875244142	-282.7382812500001	715.5611572265626	48.30421066284181	-322.8754272460938	900.2506103515627	18.54348373413086	-272.9495849609376	910.4450683593752	37.97071075439454	-331.6097412109376	866.7232055664065	22.51781463623047	-382.6917114257813	1058.057739257813	804.2216796875002	-66.31837463378908	1205.065673828125	464.4445190429689	-116.0378494262696	1223.674682617188	463.8594055175782	-283.9255371093751	1200.419189453125	391.656219482422	-116.9197158813477	1289.414428710938	412.4363098144532	-169.2072448730469	1333.112548828125	82.41458892822267	-153.3606109619141	1365.513671875	104.4997482299805	-236.1759490966797	1326.142456054688	24.18626594543458	-220.6243743896485	1501.165161132813	84.17503356933595	-206.9426574707032	1478.981323242188	102.3802642822266	-159.5853881835938	1446.278686523438	65.67771148681642	-116.9353713989258	990.949890136719	1387.894653320313	-294.3193054199219	917.617126464844	1166.153564453125	-299.2622985839844	1169.016357421875	1162.7861328125	-288.3460693359376	1107.819702148438	1308.816162109375	-286.2940063476563	920.062438964844	1212.954833984375	-406.9437255859376	960.2460937500002	1343.367797851563	-388.1711730957032	1014.417114257813	1350.936645507813	-460.6069641113282	1066.543212890625	1356.647338867188	-474.7373046875001	1130.17529296875	1055.918212890625	-572.7459716796876	1099.709106445313	1017.293151855469	-492.8652648925782	1108.577392578125	1018.400268554688	-540.1987915039064	1322.993286132813	903.837097167969	-527.3598632812501	1281.098999023438	866.7316894531252	-584.7467041015626	1387.666015625	856.2300415039065	-539.1630859375001	1321.2734375	813.0552978515627	-591.7548217773439	903.5056762695315	1195.715454101563	-200.6255493164063	949.2562255859377	1328.548706054688	-206.7813110351563	991.8049316406252	1335.620239257813	-138.5913238525391	1039.815795898438	1336.5517578125	-116.1384811401367	942.188903808594	1036.55859375	-34.33184432983399	951.743103027344	1009.922973632813	-118.8929977416992	933.1919555664065	1010.481506347656	-70.49748992919923	991.0591430664065	792.6759033203127	13.62570476531983	930.816833496094	806.3580322265627	38.82389450073243	975.1421508789065	716.2020263671876	34.31499481201173	889.952819824219	764.5701293945314	35.77203750610352	
98	0.97	1142.277954101563	864.9155883789065	-424.2545471191407	920.611999511719	942.4739990234377	-327.4564514160157	926.5352783203127	925.7404785156252	-213.0220489501954	1154.880249023438	881.7558593750002	-149.7027893066407	1030.549926757813	824.8145141601565	-497.6457824707032	951.9285278320315	456.2408752441407	-422.1790466308595	938.4065551757815	446.8192138671876	-262.5844726562501	908.9275512695315	413.3321838378907	-421.7755126953126	953.9613037109377	362.3993530273438	-365.1878967285157	772.2984619140627	85.33562469482423	-372.5871276855469	783.0950927734377	97.19862365722659	-283.5992126464844	716.0841064453126	52.56947708129884	-323.7188720703126	899.7960205078127	18.63059616088868	-272.7002868652344	910.3922119140627	37.8578224182129	-331.1662292480469	866.6260375976565	22.25276374816895	-382.3708496093751	1074.514404296875	802.3033447265627	-65.53377532958986	1221.74560546875	463.1838684082032	-116.8410110473633	1237.656494140625	462.3025512695314	-284.8102416992188	1216.888305664063	390.0048217773439	-117.6260528564453	1304.831420898438	411.0111083984376	-171.3454742431641	1348.205444335938	81.3186492919922	-155.6002044677735	1379.769409179688	103.1536254882813	-238.6652374267579	1339.852416992188	23.66301345825196	-222.4675292968751	1515.736328125	81.55382537841798	-210.3790283203126	1494.09619140625	99.90127563476565	-162.6934356689453	1461.365112304688	63.45998001098634	-120.0479736328125	1004.931518554688	1385.529296875	-292.8247680664063	932.319274902344	1163.683959960938	-298.2428283691407	1183.869384765625	1161.062866210938	-287.3045349121094	1122.17822265625	1306.634887695313	-284.8177795410157	934.5723876953127	1210.390747070313	-405.7135620117189	974.2869873046877	1341.043334960938	-386.791473388672	1028.346801757813	1348.669311523438	-459.1627807617189	1080.494140625	1354.5166015625	-473.2001342773439	1147.771118164063	1055.657592773438	-572.2021484375001	1116.9296875	1015.749694824219	-492.990447998047	1126.197631835938	1017.370788574219	-540.2952270507814	1342.262939453125	906.1137695312502	-524.9234008789064	1301.803588867188	868.7675781250002	-583.1814575195314	1407.803588867188	859.6405029296877	-536.2562255859376	1342.783081054688	815.8829345703127	-590.0045166015626	917.944274902344	1192.844604492188	-199.7174224853516	963.3541259765627	1325.794799804688	-205.4270782470704	1005.819396972656	1332.922485351563	-137.1985626220703	1053.743774414063	1333.911987304688	-114.6366729736328	953.4426879882815	1034.937377929688	-33.07858657836915	963.8881835937502	1007.793090820313	-117.4269332885742	944.835876464844	1008.875	-69.17595672607423	999.7054443359377	790.9328613281252	16.51679420471192	939.4822998046877	805.0756835937502	40.80942535400391	983.2641601562502	714.9161376953126	37.82078933715821	898.3548583984377	763.5777587890626	37.72326660156251	
99	0.98	1157.163208007813	863.0755615234377	-423.6167602539064	936.1280517578127	941.2513427734377	-325.0723876953126	942.2291259765627	924.2034912109377	-211.022933959961	1171.002197265625	881.1892700195315	-148.315414428711	1044.3515625	823.7784423828127	-496.4344787597657	963.1675415039065	455.446014404297	-422.3981323242189	950.6685180664065	445.3134155273439	-262.6696166992188	919.3069458007815	413.2586059570314	-421.8911132812501	963.5756835937502	360.9266357421876	-365.7553405761719	774.1499633789065	88.83641052246095	-373.7202453613282	785.089294433594	100.039909362793	-284.7293395996094	717.0032348632814	57.67437744140626	-324.6783142089844	899.183532714844	18.80719947814942	-272.4445495605469	910.097595214844	37.67168807983399	-330.7225036621094	866.3500976562502	21.89304351806641	-382.0057983398438	1090.956909179688	800.856140136719	-64.72466278076173	1238.527954101563	462.2696838378907	-117.6542282104492	1251.971435546875	461.2138671875001	-285.4664611816407	1233.082397460938	388.6383056640626	-118.331298828125	1319.96630859375	409.4055786132814	-173.5592651367188	1360.402465820313	79.78604888916017	-158.0592193603516	1391.267211914063	101.026123046875	-241.3747253417969	1350.158081054688	22.90752029418946	-224.4515380859376	1527.271850585938	77.20704650878908	-213.8258056640626	1506.356079101563	95.84244537353517	-165.7400970458985	1473.2236328125	60.01246261596681	-123.1575622558594	1018.992065429688	1383.4296875	-291.1678771972657	947.2476196289065	1161.47314453125	-297.0909423828126	1199.081787109375	1159.871459960938	-286.1177368164063	1136.67138671875	1304.83349609375	-283.2388305664063	949.257019042969	1208.014038085938	-404.2661437988282	988.3381958007815	1338.922729492188	-385.1740112304689	1042.168579101563	1346.714477539063	-457.524139404297	1094.317016601563	1352.772216796875	-471.5111389160157	1164.8427734375	1055.642578125	-571.4408569335939	1133.661499023438	1014.617065429688	-492.8178710937501	1143.188110351563	1016.661987304688	-540.1500854492189	1360.758911132813	908.3682861328127	-522.3717041015626	1321.631591796875	870.8863525390627	-581.4526367187501	1427.054809570313	862.925964355469	-533.2801513671876	1363.320434570313	818.7595825195315	-588.1608276367189	932.7104492187502	1190.180786132813	-198.6668243408204	977.6597900390627	1323.278442382813	-203.8985900878907	1020.042175292969	1330.497314453125	-135.6702575683594	1067.894897460938	1331.599609375	-113.0193099975586	965.316101074219	1033.603271484375	-31.72778892517091	976.6907348632815	1005.92919921875	-115.8971405029297	957.1177978515627	1007.502380371094	-67.80321502685548	1009.111206054688	789.4333496093752	19.34703254699707	948.9443969726565	804.025817871094	42.7884864807129	992.0975341796877	713.8383178710939	41.22143554687501	907.5430297851565	762.8309326171876	39.65921020507813	
